# MagicaVoxel @ Ephtracy

# material
mtllib test1.mtl
usemtl palette

# normals
vn -1 0 0
vn 1 0 0
vn 0 0 1
vn 0 0 -1
vn 0 -1 0
vn 0 1 0

# texcoords
vt 0.158203 0.5
vt 0.306641 0.5
vt 0.697266 0.5
vt 0.935547 0.5

# verts
v -5 0 5
v -5 0 -5
v -5 1 5
v -5 1 -5
v -3 1 4
v -3 1 -3
v -3 2 4
v -3 2 3
v -3 2 -2
v -3 2 -3
v -3 3 4
v -3 3 3
v -3 3 -2
v -3 3 -3
v -2 5 1
v -2 5 -0
v -2 6 1
v -2 6 -0
v -1 2 2
v -1 2 -1
v -1 3 2
v -1 3 1
v -1 3 -0
v -1 3 -1
v -1 5 1
v -1 5 -0
v -1 6 1
v -1 6 -0
v -1 7 2
v -1 7 1
v -1 7 -0
v -1 7 -1
v -1 8 2
v -1 8 -1
v 2 2 4
v 2 2 3
v 2 2 -2
v 2 2 -3
v 2 3 4
v 2 3 3
v 2 3 -2
v 2 3 -3
v -2 2 4
v -2 2 3
v -2 2 -2
v -2 2 -3
v -2 3 4
v -2 3 3
v -2 3 -2
v -2 3 -3
v 1 2 2
v 1 2 -1
v 1 3 2
v 1 3 1
v 1 3 -0
v 1 3 -1
v 1 5 1
v 1 5 -0
v 1 6 1
v 1 6 -0
v 1 7 2
v 1 7 1
v 1 7 -0
v 1 7 -1
v 1 8 2
v 1 8 -1
v 2 5 1
v 2 5 -0
v 2 6 1
v 2 6 -0
v 3 1 4
v 3 1 -3
v 3 2 4
v 3 2 3
v 3 2 -2
v 3 2 -3
v 3 3 4
v 3 3 3
v 3 3 -2
v 3 3 -3
v 5 0 5
v 5 0 -5
v 5 1 5
v 5 1 -5
v -5 0 5
v -5 1 5
v 5 0 5
v 5 1 5
v -3 1 4
v -3 2 4
v -3 3 4
v -2 2 4
v -2 3 4
v 2 2 4
v 2 3 4
v 3 1 4
v 3 2 4
v 3 3 4
v -1 2 2
v -1 3 2
v -1 7 2
v -1 8 2
v 1 2 2
v 1 3 2
v 1 7 2
v 1 8 2
v -2 5 1
v -2 6 1
v -1 3 1
v -1 5 1
v -1 6 1
v -1 7 1
v 1 3 1
v 1 5 1
v 1 6 1
v 1 7 1
v 2 5 1
v 2 6 1
v -3 2 -2
v -3 3 -2
v -2 2 -2
v -2 3 -2
v 2 2 -2
v 2 3 -2
v 3 2 -2
v 3 3 -2
v -3 2 3
v -3 3 3
v -2 2 3
v -2 3 3
v 2 2 3
v 2 3 3
v 3 2 3
v 3 3 3
v -2 5 -0
v -2 6 -0
v -1 3 -0
v -1 5 -0
v -1 6 -0
v -1 7 -0
v 1 3 -0
v 1 5 -0
v 1 6 -0
v 1 7 -0
v 2 5 -0
v 2 6 -0
v -1 2 -1
v -1 3 -1
v -1 7 -1
v -1 8 -1
v 1 2 -1
v 1 3 -1
v 1 7 -1
v 1 8 -1
v -3 1 -3
v -3 2 -3
v -3 3 -3
v -2 2 -3
v -2 3 -3
v 2 2 -3
v 2 3 -3
v 3 1 -3
v 3 2 -3
v 3 3 -3
v -5 0 -5
v -5 1 -5
v 5 0 -5
v 5 1 -5
v -5 0 5
v 5 0 5
v -5 0 -5
v 5 0 -5
v -2 5 1
v -1 5 1
v 1 5 1
v 2 5 1
v -2 5 -0
v -1 5 -0
v 1 5 -0
v 2 5 -0
v -1 7 2
v 1 7 2
v -1 7 1
v 1 7 1
v -1 7 -0
v 1 7 -0
v -1 7 -1
v 1 7 -1
v -5 1 5
v 5 1 5
v -3 1 4
v 3 1 4
v -3 1 -3
v 3 1 -3
v -5 1 -5
v 5 1 -5
v -2 2 4
v 2 2 4
v -3 2 3
v -2 2 3
v 2 2 3
v 3 2 3
v -1 2 2
v 1 2 2
v -1 2 -1
v 1 2 -1
v -3 2 -2
v -2 2 -2
v 2 2 -2
v 3 2 -2
v -2 2 -3
v 2 2 -3
v -3 3 4
v -2 3 4
v 2 3 4
v 3 3 4
v -3 3 3
v -2 3 3
v 2 3 3
v 3 3 3
v -1 3 2
v 1 3 2
v -1 3 1
v 1 3 1
v -1 3 -0
v 1 3 -0
v -1 3 -1
v 1 3 -1
v -3 3 -2
v -2 3 -2
v 2 3 -2
v 3 3 -2
v -3 3 -3
v -2 3 -3
v 2 3 -3
v 3 3 -3
v -2 6 1
v -1 6 1
v 1 6 1
v 2 6 1
v -2 6 -0
v -1 6 -0
v 1 6 -0
v 2 6 -0
v -1 8 2
v 1 8 2
v -1 8 -1
v 1 8 -1

# faces
f 3/3/1 2/3/1 1/3/1
f 4/3/1 2/3/1 3/3/1
f 7/4/1 6/4/1 5/4/1
f 8/4/1 6/4/1 7/4/1
f 9/4/1 6/4/1 8/4/1
f 10/4/1 6/4/1 9/4/1
f 11/2/1 8/2/1 7/2/1
f 12/2/1 8/2/1 11/2/1
f 13/2/1 10/2/1 9/2/1
f 14/2/1 10/2/1 13/2/1
f 17/2/1 16/2/1 15/2/1
f 18/2/1 16/2/1 17/2/1
f 21/2/1 20/2/1 19/2/1
f 22/2/1 20/2/1 21/2/1
f 23/2/1 20/2/1 22/2/1
f 24/2/1 20/2/1 23/2/1
f 25/2/1 23/2/1 22/2/1
f 26/2/1 23/2/1 25/2/1
f 30/2/1 28/2/1 27/2/1
f 31/2/1 28/2/1 30/2/1
f 33/1/1 31/1/1 30/1/1
f 33/1/1 32/1/1 31/1/1
f 33/1/1 30/1/1 29/1/1
f 34/1/1 32/1/1 33/1/1
f 39/2/1 36/2/1 35/2/1
f 40/2/1 36/2/1 39/2/1
f 41/2/1 38/2/1 37/2/1
f 42/2/1 38/2/1 41/2/1
f 43/2/2 44/2/2 47/2/2
f 47/2/2 44/2/2 48/2/2
f 45/2/2 46/2/2 49/2/2
f 49/2/2 46/2/2 50/2/2
f 51/2/2 52/2/2 53/2/2
f 53/2/2 52/2/2 54/2/2
f 54/2/2 52/2/2 55/2/2
f 55/2/2 52/2/2 56/2/2
f 54/2/2 55/2/2 57/2/2
f 57/2/2 55/2/2 58/2/2
f 59/2/2 60/2/2 62/2/2
f 62/2/2 60/2/2 63/2/2
f 62/1/2 63/1/2 65/1/2
f 63/1/2 64/1/2 65/1/2
f 61/1/2 62/1/2 65/1/2
f 65/1/2 64/1/2 66/1/2
f 67/2/2 68/2/2 69/2/2
f 69/2/2 68/2/2 70/2/2
f 71/4/2 72/4/2 73/4/2
f 73/4/2 72/4/2 74/4/2
f 74/4/2 72/4/2 75/4/2
f 75/4/2 72/4/2 76/4/2
f 73/2/2 74/2/2 77/2/2
f 77/2/2 74/2/2 78/2/2
f 75/2/2 76/2/2 79/2/2
f 79/2/2 76/2/2 80/2/2
f 81/3/2 82/3/2 83/3/2
f 83/3/2 82/3/2 84/3/2
f 87/3/3 86/3/3 85/3/3
f 88/3/3 86/3/3 87/3/3
f 92/4/3 90/4/3 89/4/3
f 92/2/3 91/2/3 90/2/3
f 93/2/3 91/2/3 92/2/3
f 94/4/3 92/4/3 89/4/3
f 96/4/3 94/4/3 89/4/3
f 97/2/3 95/2/3 94/2/3
f 97/4/3 94/4/3 96/4/3
f 98/2/3 95/2/3 97/2/3
f 103/2/3 100/2/3 99/2/3
f 104/2/3 100/2/3 103/2/3
f 105/1/3 102/1/3 101/1/3
f 106/1/3 102/1/3 105/1/3
f 110/2/3 108/2/3 107/2/3
f 111/2/3 108/2/3 110/2/3
f 113/2/3 110/2/3 109/2/3
f 113/2/3 112/2/3 111/2/3
f 113/2/3 111/2/3 110/2/3
f 114/2/3 112/2/3 113/2/3
f 115/2/3 112/2/3 114/2/3
f 116/2/3 112/2/3 115/2/3
f 117/2/3 115/2/3 114/2/3
f 118/2/3 115/2/3 117/2/3
f 121/2/3 120/2/3 119/2/3
f 122/2/3 120/2/3 121/2/3
f 125/2/3 124/2/3 123/2/3
f 126/2/3 124/2/3 125/2/3
f 127/2/4 128/2/4 129/2/4
f 129/2/4 128/2/4 130/2/4
f 131/2/4 132/2/4 133/2/4
f 133/2/4 132/2/4 134/2/4
f 135/2/4 136/2/4 138/2/4
f 138/2/4 136/2/4 139/2/4
f 137/2/4 138/2/4 141/2/4
f 139/2/4 140/2/4 141/2/4
f 138/2/4 139/2/4 141/2/4
f 141/2/4 140/2/4 142/2/4
f 142/2/4 140/2/4 143/2/4
f 143/2/4 140/2/4 144/2/4
f 142/2/4 143/2/4 145/2/4
f 145/2/4 143/2/4 146/2/4
f 147/2/4 148/2/4 151/2/4
f 151/2/4 148/2/4 152/2/4
f 149/1/4 150/1/4 153/1/4
f 153/1/4 150/1/4 154/1/4
f 155/4/4 156/4/4 158/4/4
f 156/2/4 157/2/4 158/2/4
f 158/2/4 157/2/4 159/2/4
f 155/4/4 158/4/4 160/4/4
f 155/4/4 160/4/4 162/4/4
f 160/2/4 161/2/4 163/2/4
f 162/4/4 160/4/4 163/4/4
f 163/2/4 161/2/4 164/2/4
f 165/3/4 166/3/4 167/3/4
f 167/3/4 166/3/4 168/3/4
f 171/3/5 170/3/5 169/3/5
f 172/3/5 170/3/5 171/3/5
f 177/2/5 174/2/5 173/2/5
f 178/2/5 174/2/5 177/2/5
f 179/2/5 176/2/5 175/2/5
f 180/2/5 176/2/5 179/2/5
f 183/1/5 182/1/5 181/1/5
f 184/1/5 182/1/5 183/1/5
f 187/1/5 186/1/5 185/1/5
f 188/1/5 186/1/5 187/1/5
f 189/3/6 190/3/6 191/3/6
f 191/3/6 190/3/6 192/3/6
f 189/3/6 191/3/6 193/3/6
f 192/3/6 190/3/6 194/3/6
f 189/3/6 193/3/6 195/3/6
f 193/3/6 194/3/6 195/3/6
f 194/3/6 190/3/6 196/3/6
f 195/3/6 194/3/6 196/3/6
f 197/4/6 198/4/6 200/4/6
f 200/4/6 198/4/6 201/4/6
f 199/4/6 200/4/6 203/4/6
f 201/4/6 202/4/6 203/4/6
f 200/4/6 201/4/6 203/4/6
f 203/4/6 202/4/6 204/4/6
f 199/4/6 203/4/6 205/4/6
f 204/4/6 202/4/6 206/4/6
f 199/4/6 205/4/6 207/4/6
f 205/4/6 206/4/6 207/4/6
f 207/4/6 206/4/6 208/4/6
f 206/4/6 202/4/6 209/4/6
f 208/4/6 206/4/6 209/4/6
f 209/4/6 202/4/6 210/4/6
f 208/4/6 209/4/6 211/4/6
f 211/4/6 209/4/6 212/4/6
f 213/2/6 214/2/6 217/2/6
f 217/2/6 214/2/6 218/2/6
f 215/2/6 216/2/6 219/2/6
f 219/2/6 216/2/6 220/2/6
f 221/2/6 222/2/6 223/2/6
f 223/2/6 222/2/6 224/2/6
f 225/2/6 226/2/6 227/2/6
f 227/2/6 226/2/6 228/2/6
f 229/2/6 230/2/6 233/2/6
f 233/2/6 230/2/6 234/2/6
f 231/2/6 232/2/6 235/2/6
f 235/2/6 232/2/6 236/2/6
f 237/2/6 238/2/6 241/2/6
f 241/2/6 238/2/6 242/2/6
f 239/2/6 240/2/6 243/2/6
f 243/2/6 240/2/6 244/2/6
f 245/1/6 246/1/6 247/1/6
f 247/1/6 246/1/6 248/1/6
